<?xml version="1.0" encoding="UTF-8"?>
<svg id="Capa_1" data-name="Capa 1" xmlns="http://www.w3.org/2000/svg" viewBox="0 0 799.96 800">
  <defs>
    <style>
      .cls-1 {
        fill: #236fa1;
      }
    </style>
  </defs>
  <path class="cls-1" d="m397.83,0C176.95,1.2-1.19,181.22,0,402.14c1.15,220.91,181.29,399.01,402.09,397.86,221.03-1.19,399.05-181.21,397.86-402.09C798.73,176.91,618.82-1.15,397.83,0Zm3.96,734.8c-184.91.92-335.44-148.1-336.48-333.01-.96-184.88,147.95-335.63,332.86-336.63,184.95-1,335.67,148.18,336.67,332.97.97,184.99-148.17,335.67-333.05,336.67Zm59.26-159.77l-1.66-299.01-154.3,1,.31,65.43,41.9-.23,1.23,233.47-44.44.15.35,62.5,193.65-1.04-.39-62.46-36.66.19Zm-58.8-343.14c37.74-.15,60.5-25.41,60.3-56.45-1-31.81-23.18-56.07-59.49-55.91-36.2.23-59.8,24.8-59.65,56.61.19,31,23.22,56.03,58.84,55.76Z"/>
</svg>