<?xml version="1.0" encoding="UTF-8"?>
<svg id="Layer_1" data-name="Layer 1" xmlns="http://www.w3.org/2000/svg" viewBox="0 0 516.67 716.67">
  <defs>
    <style>
      .cls-1 {
        fill: #169179;
        fill-rule: evenodd;
      }
    </style>
  </defs>
  <path class="cls-1" d="m166.67,608.33c0-13.81,11.19-25,25-25h133.33c13.81,0,25,11.19,25,25s-11.19,25-25,25h-133.33c-13.81,0-25-11.19-25-25Zm22.22,83.33c0-13.81,11.19-25,25-25h88.89c13.81,0,25,11.19,25,25s-11.19,25-25,25h-88.89c-13.81,0-25-11.19-25-25Z"/>
  <path class="cls-1" d="m0,232.27C0,102.11,118.46,0,258.33,0s258.33,102.11,258.33,232.27v.11c-.32,73.55-31.95,146.81-88.15,200.11l-.07.07-36.8,34.64c-5.3,4.99-8.31,11.96-8.31,19.24,0,35.11-28.46,63.57-63.57,63.57h-122.87c-35.11,0-63.57-28.46-63.57-63.57,0-7.28-3.01-14.25-8.31-19.24l-36.8-34.64-.07-.07C31.95,379.19.32,305.92,0,232.38v-.11Zm50-.05c.27,59.52,26.01,119.83,72.52,163.96.01.01.02.02.03.03l36.73,34.57c15.34,14.44,24.04,34.58,24.04,55.65,0,7.49,6.07,13.57,13.57,13.57h122.87c7.49,0,13.57-6.07,13.57-13.57,0-21.07,8.7-41.21,24.04-55.65h0l36.73-34.57s.02-.02.03-.03c46.52-44.14,72.25-104.45,72.52-163.97-.04-97.23-90.49-182.21-208.33-182.21S50.03,134.98,50,232.21Z"/>
</svg>