<?xml version="1.0" encoding="utf-8"?>
<!-- Generator: Adobe Illustrator 28.1.0, SVG Export Plug-In . SVG Version: 6.00 Build 0)  -->
<svg version="1.1" id="_x32_" xmlns="http://www.w3.org/2000/svg" xmlns:xlink="http://www.w3.org/1999/xlink" x="0px" y="0px"
	 viewBox="0 0 800 800" style="enable-background:new 0 0 800 800;" xml:space="preserve">
<style type="text/css">
	.st0{fill:#F97306;}
</style>
<g>
	<path class="st0" d="M548.3,377.7C548.3,377.7,548.2,377.7,548.3,377.7l-105.1,0.5c-9.5-20.5-32.6-31.8-55-25.4
		c-5.7,1.6-10.9,4.4-15.4,7.8l-165.3-145c-4-3.5-10.1-3.1-13.6,0.9c-3.5,4-3.1,10.1,0.9,13.7l165.3,145c-5.8,10.4-7.6,23-4.1,35.4
		c1.2,4.2,3.1,8.1,5.3,11.6l-115,126.7c-4.8,5.3-4.4,13.4,0.9,18.2c2.5,2.2,5.6,3.4,8.7,3.4c3.5,0,7-1.4,9.6-4.2l115-126.6
		c10,4.9,21.7,6.4,33.3,3.1c13.8-3.9,24.1-13.7,29.6-25.8l105.1-0.5c10.7-0.1,19.3-8.8,19.3-19.4
		C567.6,386.3,558.9,377.7,548.3,377.7z"/>
	<path class="st0" d="M400,0C179.4,0,0,179.4,0,400c0,220.6,179.4,400,400,400s400-179.4,400-400C800,179.4,620.6,0,400,0z
		 M643.1,535.6c-2,3.5-4,7-6.1,10.4l41.6,25.8C651,616.5,613,654,567.9,681l-25.1-42c-3.5,2.1-7,4.1-10.6,6l23.2,43.1
		c-46.3,25.1-99.3,39.4-155.5,39.4c-57.8,0-112.2-15.1-159.4-41.5l23.7-42.8c-3.5-2-6.9-4-10.3-6l-25.6,41.7
		c-44.7-27.6-82.3-65.6-109.3-110.6l42-25.1c-2.1-3.5-4.1-7-6-10.5L112,555.8C86.8,509.4,72.5,456.4,72.5,400
		c0-57.4,14.9-111.4,41-158.4l13.3,6.5l29.5,17.3l1.1-1.9c1.8-3.1,3.6-6.2,5.4-9.2l-41.7-25.6c27.6-44.7,65.6-82.3,110.6-109.4
		l25.1,42c3.5-2.1,7-4.1,10.6-6L244,112.1c46.4-25.2,99.5-39.6,156-39.6c57.7,0,111.9,15,159,41.3l-7.6,13.4l-15.8,29.7
		c3.4,1.9,6.7,3.8,10,5.8l25.5-41.8c44.7,27.5,82.4,65.5,109.5,110.5l-42,25.2c2.1,3.5,4.1,7,6,10.6l43-23.4
		c25.3,46.4,39.7,99.7,39.7,156.2c0,57.5-15,111.6-41.1,158.7L643.1,535.6z"/>
	<polygon class="st0" points="350.3,219.4 370.4,219.4 370.4,109.1 350.3,109.1 327.8,128.7 327.8,150.3 350.3,130.8 	"/>
	<path class="st0" d="M472.2,201.3h-42.6l30.8-35.8c1.9-2.2,3.5-4.2,5-6.1c1.5-1.9,2.7-3.9,3.7-5.8c1-2,1.7-4,2.2-6.1
		c0.5-2.1,0.8-4.5,0.8-7.2c0-5-0.8-9.4-2.5-13.4c-1.6-4-3.9-7.3-6.9-10.1c-2.9-2.7-6.5-4.9-10.6-6.3c-4.1-1.5-8.6-2.3-13.5-2.3
		c-4.7,0-9.2,0.7-13.2,2.2c-4.1,1.4-7.6,3.6-10.7,6.4c-3.1,2.8-5.4,6.2-7.1,10.1c-1.7,4-2.6,8.5-2.6,13.5h20.1
		c0-2.7,0.4-4.9,1.2-6.7c0.8-1.8,1.8-3.2,3.1-4.3c1.3-1.1,2.7-1.9,4.3-2.3c1.6-0.5,3.2-0.7,4.9-0.7c4.3,0,7.6,1.3,9.9,3.8
		c2.3,2.5,3.4,5.9,3.4,10c0,2.6-0.4,4.9-1.3,6.8c-0.9,2-2.4,4.1-4.4,6.5l-41.2,47.8v18.1h67L472.2,201.3L472.2,201.3z"/>
	<path class="st0" d="M684.5,407.2c-2.8-4-6.1-7-10.1-9.1c3.6-2,6.6-4.7,9.1-8.3c2.4-3.6,3.6-8.3,3.6-14.3c0-4.6-0.8-8.9-2.5-12.8
		c-1.6-3.9-4-7.2-7-10c-3-2.8-6.6-5-10.7-6.5c-4.1-1.6-8.6-2.3-13.5-2.3c-4.6,0-9,0.7-13.1,2.2c-4.1,1.4-7.6,3.5-10.6,6.2
		c-3,2.7-5.4,6-7.2,9.8c-1.8,3.9-2.8,8.3-2.9,13.2h20.1c0.2-4.2,1.6-7.5,4.1-9.8c2.5-2.3,5.7-3.5,9.5-3.5c3.6,0,6.8,1.2,9.5,3.6
		c2.7,2.4,4,5.9,4,10.5c0,3.9-1.1,7.2-3.2,9.8c-2.2,2.6-5.7,4-10.7,4h-2.9v17.5h2.9c5,0,8.8,1.4,11.5,4.1c2.7,2.7,4,6.4,4,11.1
		c0,5-1.4,8.8-4.2,11.4c-2.8,2.6-6.3,3.9-10.7,3.9c-2,0-3.8-0.3-5.6-0.9c-1.8-0.6-3.4-1.4-4.7-2.6c-1.3-1.2-2.4-2.7-3.2-4.5
		c-0.8-1.8-1.3-3.9-1.4-6.4h-20.1c0.1,5.8,1.1,10.7,3.1,14.8c2,4.1,4.6,7.4,7.8,10.1c3.2,2.6,7,4.6,11.2,5.8
		c4.2,1.2,8.5,1.9,13.1,1.9c4.8,0,9.2-0.7,13.5-2c4.2-1.3,7.9-3.4,11.1-6.1c3.2-2.7,5.7-6.2,7.6-10.3c1.9-4.1,2.8-8.9,2.8-14.4
		C688.7,416.5,687.3,411.2,684.5,407.2z"/>
	<path class="st0" d="M425.5,644.4c-2.7-2.8-5.8-4.9-9.3-6.4c-3.5-1.5-7-2.2-10.8-2.2c-1.3,0-2.7,0.1-4.1,0.3
		c-1.4,0.2-2.8,0.6-4.1,1.1l22.9-45.5h-22l-23.2,47.7c-2.5,5.1-4.6,10-6.5,14.7c-1.9,4.8-2.8,9.7-2.8,14.7c0,5.5,0.9,10.3,2.6,14.6
		c1.8,4.2,4.2,7.8,7.3,10.7c3.1,2.9,6.7,5.1,10.9,6.6c4.2,1.5,8.7,2.3,13.5,2.3c4.9,0,9.4-0.8,13.5-2.3c4.2-1.5,7.8-3.8,10.9-6.7
		c3.1-2.9,5.5-6.5,7.3-10.8c1.8-4.2,2.6-9.1,2.6-14.6c0-5.1-0.8-9.6-2.4-13.7C430.4,650.7,428.2,647.2,425.5,644.4z M410.2,680.5
		c-2.7,2.8-6.1,4.2-10.2,4.2c-4.1,0-7.5-1.4-10.2-4.2c-2.7-2.8-4-6.8-4-11.9c0-5.2,1.3-9.1,4-11.9c2.7-2.8,6.1-4.2,10.2-4.2
		c4.3,0,7.8,1.4,10.4,4.3c2.6,2.9,3.9,6.8,3.9,11.8C414.2,673.8,412.9,677.7,410.2,680.5z"/>
	<path class="st0" d="M172.9,353.2c-3.1-2.9-6.7-5.1-10.9-6.6c-4.2-1.5-8.7-2.2-13.5-2.2c-4.9,0-9.4,0.8-13.6,2.3
		c-4.2,1.6-7.8,3.8-10.9,6.7c-3.1,2.9-5.5,6.6-7.3,10.8c-1.8,4.3-2.6,9.1-2.6,14.5c0,5.2,0.8,9.8,2.5,13.8c1.7,4,3.8,7.4,6.5,10.2
		c2.7,2.8,5.8,4.9,9.3,6.4c3.5,1.5,7.1,2.3,10.8,2.3c1.3,0,2.7-0.1,4.1-0.3c1.4-0.2,2.8-0.6,4.1-1.1l-22.9,45.5h21.8l23.4-47.7
		c2.5-5.1,4.6-10,6.4-14.7c1.8-4.7,2.7-9.7,2.7-14.7c0-5.5-0.9-10.3-2.6-14.6C178.4,359.7,176,356.1,172.9,353.2z M158.6,390.6
		c-2.7,2.8-6.1,4.2-10.2,4.2c-4.3,0-7.8-1.5-10.4-4.3c-2.6-2.9-3.9-6.8-3.9-11.8c0-5.2,1.3-9.1,4-11.9c2.7-2.8,6.1-4.2,10.2-4.2
		c4.1,0,7.5,1.4,10.2,4.2c2.7,2.8,4,6.8,4,11.9C162.7,383.8,161.3,387.8,158.6,390.6z"/>
</g>
</svg>
