<?xml version="1.0" encoding="UTF-8"?>
<svg id="Layer_1" data-name="Layer 1" xmlns="http://www.w3.org/2000/svg" viewBox="0 0 800.02 700.65">
  <defs>
    <style>
      .cls-1 {
        fill: #843fa1;
      }
    </style>
  </defs>
  <path class="cls-1" d="m750,0H50C22.37,0,0,22.38,0,50v451.17c0,27.62,22.37,50,50,50h99.65v124.48c0,10.1,6.05,19.18,15.35,23.05,3.12,1.3,6.42,1.95,9.65,1.95,6.45,0,12.75-2.48,17.53-7.18l144.55-142.3h413.3c27.62,0,50-22.38,50-50V50c0-27.6-22.38-50-50-50h-.02Zm0,501.15h-433.77l-116.6,114.77v-114.77H49.98V49.98h700v451.18h.02ZM175,301.08h450c13.8,0,25-11.2,25-25s-11.2-25-25-25H175c-13.8,0-25,11.2-25,25s11.2,25,25,25Zm0-100h450c13.8,0,25-11.2,25-25s-11.2-25-25-25H175c-13.8,0-25,11.2-25,25s11.2,25,25,25Zm0,200.02h300c13.8,0,25-11.2,25-25s-11.2-25-25-25H175c-13.8,0-25,11.2-25,25s11.2,25,25,25Z"/>
</svg>