<?xml version="1.0" encoding="UTF-8"?>
<svg id="Layer_1" data-name="Layer 1" xmlns="http://www.w3.org/2000/svg" viewBox="0 0 800 800">
  <defs>
    <style>
      .cls-1 {
        fill: none;
      }

      .cls-2 {
        fill: #e67e23;
      }
    </style>
  </defs>
  <rect id="Icons" class="cls-1" x="-8000" y="-800" width="16000" height="10000"/>
  <g id="Icons1">
    <g id="warning">
      <path class="cls-2" d="m405.34,99.84c27.29,1.55,50,14.56,63.7,41.01l224.2,452.6c21.74,45.75-11.92,107.31-67.16,108.2H174.59c-50.27-.8-91.53-57.89-66.9-108.7l228.39-452.59c4.27-8.12,6.22-10.48,9.91-14.74,14.83-17.19,31.04-26.39,59.35-25.79h0Zm-3.69,49.96c-8.59.43-16.45,5.24-20.74,12.71-78.9,149.74-154.96,301.01-228.76,453.34-6.82,15.31,4.89,34.96,22.03,35.79,150.75,2.44,301.56,2.44,452.31,0,16.56-.8,29.01-19.8,22.11-35.62-72.41-152.3-147.06-303.57-224.57-453.34-4.58-8.14-11.29-13.02-22.38-12.87Z"/>
      <path class="cls-2" d="m420.39,507.26h-41.85l-4.6-205.61h51.25l-4.8,205.61Zm-47.85,62.87c0-7.61,2.46-13.91,7.4-18.92,4.95-5,11.69-7.51,20.23-7.51s15.29,2.51,20.23,7.51c4.94,5.01,7.41,11.31,7.41,18.92s-2.41,13.47-7.21,18.41c-4.81,4.94-11.61,7.41-20.42,7.41s-15.61-2.48-20.43-7.41c-4.8-4.94-7.2-11.08-7.2-18.41h0Z"/>
    </g>
  </g>
</svg>